<svg width="104" height="40" viewBox="0 0 104 40" fill="none" xmlns="http://www.w3.org/2000/svg">
<rect width="104" height="40" rx="5" fill="#282845"/>
<path d="M42 19C41.4477 19 41 19.4477 41 20C41 20.5523 41.4477 21 42 21L42 19ZM62.7071 20.7071C63.0976 20.3166 63.0976 19.6834 62.7071 19.2929L56.3431 12.9289C55.9526 12.5384 55.3195 12.5384 54.9289 12.9289C54.5384 13.3195 54.5384 13.9526 54.9289 14.3431L60.5858 20L54.9289 25.6569C54.5384 26.0474 54.5384 26.6805 54.9289 27.0711C55.3195 27.4616 55.9526 27.4616 56.3431 27.0711L62.7071 20.7071ZM42 21L62 21L62 19L42 19L42 21Z" fill="#ecfdff"/>
</svg>
