<svg width="38" height="38" viewBox="0 0 38 38" fill="none" xmlns="http://www.w3.org/2000/svg">
<path d="M5.18716 9.43975C7.53526 9.43975 9.43878 7.53624 9.43878 5.18814C9.43878 2.84004 7.53526 0.936523 5.18716 0.936523C2.83906 0.936523 0.935547 2.84004 0.935547 5.18814C0.935547 7.53624 2.83906 9.43975 5.18716 9.43975Z" fill="white"/>
<path d="M32.8126 9.43975C33.9402 9.43975 35.0216 8.99181 35.8189 8.19448C36.6162 7.39715 37.0642 6.31574 37.0642 5.18814C37.0642 4.06054 36.6162 2.97912 35.8189 2.18179C35.0216 1.38446 33.9402 0.936523 32.8126 0.936523H18.9997C17.8721 0.936523 16.7906 1.38446 15.9933 2.18179C15.196 2.97912 14.748 4.06054 14.748 5.18814C14.748 6.31574 15.196 7.39715 15.9933 8.19448C16.7906 8.99181 17.8721 9.43975 18.9997 9.43975H32.8126Z" fill="white"/>
<path d="M19.0001 23.2527C20.1277 23.2527 21.2091 22.8048 22.0064 22.0075C22.8037 21.2101 23.2517 20.1287 23.2517 19.0011C23.2517 17.8735 22.8037 16.7921 22.0064 15.9948C21.2091 15.1974 20.1277 14.7495 19.0001 14.7495H5.18716C4.05956 14.7495 2.97815 15.1974 2.18082 15.9948C1.38348 16.7921 0.935547 17.8735 0.935547 19.0011C0.935547 20.1287 1.38348 21.2101 2.18082 22.0075C2.97815 22.8048 4.05956 23.2527 5.18716 23.2527H19.0001Z" fill="white"/>
<path d="M5.18716 37.0652C7.53526 37.0652 9.43878 35.1617 9.43878 32.8136C9.43878 30.4655 7.53526 28.562 5.18716 28.562C2.83906 28.562 0.935547 30.4655 0.935547 32.8136C0.935547 35.1617 2.83906 37.0652 5.18716 37.0652Z" fill="white"/>
<path d="M18.9997 37.0652C21.3478 37.0652 23.2513 35.1617 23.2513 32.8136C23.2513 30.4655 21.3478 28.562 18.9997 28.562C16.6516 28.562 14.748 30.4655 14.748 32.8136C14.748 35.1617 16.6516 37.0652 18.9997 37.0652Z" fill="#607AFF"/>
<path d="M32.8141 37.0652C35.1622 37.0652 37.0657 35.1617 37.0657 32.8136C37.0657 30.4655 35.1622 28.562 32.8141 28.562C30.466 28.562 28.5625 30.4655 28.5625 32.8136C28.5625 35.1617 30.466 37.0652 32.8141 37.0652Z" fill="#607AFF"/>
<path d="M32.8141 23.2527C35.1622 23.2527 37.0657 21.3492 37.0657 19.0011C37.0657 16.653 35.1622 14.7495 32.8141 14.7495C30.466 14.7495 28.5625 16.653 28.5625 19.0011C28.5625 21.3492 30.466 23.2527 32.8141 23.2527Z" fill="#607AFF"/>
</svg>
