<svg width="60" height="81" viewBox="0 0 60 81" fill="none" xmlns="http://www.w3.org/2000/svg">
<rect width="60" height="81" fill="white"/>
<path d="M40.667 27.666H24.667C23.2003 27.666 22.0003 28.866 22.0003 30.3327V46.3327C22.0003 47.7993 23.2003 48.9993 24.667 48.9993H40.667C42.1337 48.9993 43.3337 47.7993 43.3337 46.3327V30.3327C43.3337 28.866 42.1337 27.666 40.667 27.666ZM29.3337 37.666C29.3337 38.7727 28.4403 39.666 27.3337 39.666H26.0003V41.3327C26.0003 41.8793 25.547 42.3327 25.0003 42.3327C24.4537 42.3327 24.0003 41.8793 24.0003 41.3327V35.666C24.0003 34.9327 24.6003 34.3327 25.3337 34.3327H27.3337C28.4403 34.3327 29.3337 35.226 29.3337 36.3327V37.666ZM36.0003 40.3327C36.0003 41.4393 35.107 42.3327 34.0003 42.3327H31.3337C30.9603 42.3327 30.667 42.0393 30.667 41.666V34.9993C30.667 34.626 30.9603 34.3327 31.3337 34.3327H34.0003C35.107 34.3327 36.0003 35.226 36.0003 36.3327V40.3327ZM41.3337 35.3327C41.3337 35.8793 40.8803 36.3327 40.3337 36.3327H39.3337V37.666H40.3337C40.8803 37.666 41.3337 38.1193 41.3337 38.666C41.3337 39.2127 40.8803 39.666 40.3337 39.666H39.3337V41.3327C39.3337 41.8793 38.8803 42.3327 38.3337 42.3327C37.787 42.3327 37.3337 41.8793 37.3337 41.3327V35.666C37.3337 34.9327 37.9337 34.3327 38.667 34.3327H40.3337C40.8803 34.3327 41.3337 34.786 41.3337 35.3327ZM26.0003 37.666H27.3337V36.3327H26.0003V37.666ZM18.0003 32.9993C17.267 32.9993 16.667 33.5993 16.667 34.3327V51.666C16.667 53.1327 17.867 54.3327 19.3337 54.3327H36.667C37.4003 54.3327 38.0003 53.7327 38.0003 52.9993C38.0003 52.266 37.4003 51.666 36.667 51.666H20.667C19.9337 51.666 19.3337 51.066 19.3337 50.3327V34.3327C19.3337 33.5993 18.7337 32.9993 18.0003 32.9993ZM32.667 40.3327H34.0003V36.3327H32.667V40.3327Z" fill="#607AFF"/>
</svg>
