<svg width="193" height="60" viewBox="0 0 193 60" fill="none" xmlns="http://www.w3.org/2000/svg">
<path d="M16.1862 20.4398C18.5343 20.4398 20.4378 18.5362 20.4378 16.1881C20.4378 13.84 18.5343 11.9365 16.1862 11.9365C13.8381 11.9365 11.9346 13.84 11.9346 16.1881C11.9346 18.5362 13.8381 20.4398 16.1862 20.4398Z" fill="#303045"/>
<path d="M43.8121 20.4398C44.9397 20.4398 46.0211 19.9918 46.8184 19.1945C47.6158 18.3971 48.0637 17.3157 48.0637 16.1881C48.0637 15.0605 47.6158 13.9791 46.8184 13.1818C46.0211 12.3845 44.9397 11.9365 43.8121 11.9365H29.9992C28.8716 11.9365 27.7902 12.3845 26.9928 13.1818C26.1955 13.9791 25.7476 15.0605 25.7476 16.1881C25.7476 17.3157 26.1955 18.3971 26.9928 19.1945C27.7902 19.9918 28.8716 20.4398 29.9992 20.4398H43.8121Z" fill="#303045"/>
<path d="M29.9991 34.2525C31.1267 34.2525 32.2081 33.8046 33.0054 33.0072C33.8028 32.2099 34.2507 31.1285 34.2507 30.0009C34.2507 28.8733 33.8028 27.7919 33.0054 26.9945C32.2081 26.1972 31.1267 25.7493 29.9991 25.7493H16.1862C15.0586 25.7493 13.9772 26.1972 13.1798 26.9945C12.3825 27.7919 11.9346 28.8733 11.9346 30.0009C11.9346 31.1285 12.3825 32.2099 13.1798 33.0072C13.9772 33.8046 15.0586 34.2525 16.1862 34.2525H29.9991Z" fill="#303045"/>
<path d="M16.1862 48.0652C18.5343 48.0652 20.4378 46.1617 20.4378 43.8136C20.4378 41.4655 18.5343 39.562 16.1862 39.562C13.8381 39.562 11.9346 41.4655 11.9346 43.8136C11.9346 46.1617 13.8381 48.0652 16.1862 48.0652Z" fill="#303045"/>
<path d="M29.9992 48.0652C32.3473 48.0652 34.2508 46.1617 34.2508 43.8136C34.2508 41.4655 32.3473 39.562 29.9992 39.562C27.6511 39.562 25.7476 41.4655 25.7476 43.8136C25.7476 46.1617 27.6511 48.0652 29.9992 48.0652Z" fill="#607AFF"/>
<path d="M43.8136 48.0652C46.1617 48.0652 48.0652 46.1617 48.0652 43.8136C48.0652 41.4655 46.1617 39.562 43.8136 39.562C41.4655 39.562 39.562 41.4655 39.562 43.8136C39.562 46.1617 41.4655 48.0652 43.8136 48.0652Z" fill="#607AFF"/>
<path d="M43.8136 34.2525C46.1617 34.2525 48.0652 32.349 48.0652 30.0009C48.0652 27.6528 46.1617 25.7493 43.8136 25.7493C41.4655 25.7493 39.562 27.6528 39.562 30.0009C39.562 32.349 41.4655 34.2525 43.8136 34.2525Z" fill="#607AFF"/>
<path d="M71.0705 21.3385C68.6855 21.1585 67.493 22.1147 67.493 24.2072V24.376H71.0705V28.561H67.493V41.251H63.1392V28.561H60.7092V24.376H63.1392V24.2072C63.1392 21.8222 63.803 20.011 65.1305 18.7735C66.458 17.536 68.438 16.996 71.0705 17.1535V21.3385ZM85.2647 24.376H89.6185V41.251H85.2647V39.2597C83.9597 40.9022 82.126 41.7235 79.7635 41.7235C77.5135 41.7235 75.5785 40.8685 73.9585 39.1585C72.361 37.426 71.5622 35.311 71.5622 32.8135C71.5622 30.316 72.361 28.2122 73.9585 26.5022C75.5785 24.7697 77.5135 23.9035 79.7635 23.9035C82.126 23.9035 83.9597 24.7247 85.2647 26.3672V24.376ZM77.2322 36.256C78.1097 37.1335 79.2235 37.5722 80.5735 37.5722C81.9235 37.5722 83.0372 37.1335 83.9147 36.256C84.8147 35.356 85.2647 34.2085 85.2647 32.8135C85.2647 31.4185 84.8147 30.2822 83.9147 29.4047C83.0372 28.5047 81.9235 28.0547 80.5735 28.0547C79.2235 28.0547 78.1097 28.5047 77.2322 29.4047C76.3547 30.2822 75.916 31.4185 75.916 32.8135C75.916 34.2085 76.3547 35.356 77.2322 36.256ZM97.9202 27.2785C98.3252 26.1985 98.9889 25.3885 99.9114 24.8485C100.856 24.3085 101.903 24.0385 103.05 24.0385V28.8985C101.723 28.741 100.53 29.011 99.4727 29.7085C98.4377 30.406 97.9202 31.5647 97.9202 33.1847V41.251H93.5664V24.376H97.9202V27.2785ZM124.26 23.9035C126.195 23.9035 127.736 24.5335 128.884 25.7935C130.054 27.0535 130.639 28.741 130.639 30.856V41.251H126.285V31.1597C126.285 30.1472 126.038 29.3597 125.543 28.7972C125.048 28.2347 124.35 27.9535 123.45 27.9535C122.46 27.9535 121.684 28.2797 121.121 28.9322C120.581 29.5847 120.311 30.5297 120.311 31.7672V41.251H115.958V31.1597C115.958 30.1472 115.71 29.3597 115.215 28.7972C114.72 28.2347 114.023 27.9535 113.123 27.9535C112.155 27.9535 111.379 28.2797 110.794 28.9322C110.231 29.5847 109.95 30.5297 109.95 31.7672V41.251H105.596V24.376H109.95V26.1647C110.963 24.6572 112.526 23.9035 114.641 23.9035C116.711 23.9035 118.241 24.7135 119.231 26.3335C120.356 24.7135 122.033 23.9035 124.26 23.9035ZM147.162 24.376H151.515V41.251H147.162V39.2597C145.857 40.9022 144.023 41.7235 141.66 41.7235C139.41 41.7235 137.475 40.8685 135.855 39.1585C134.258 37.426 133.459 35.311 133.459 32.8135C133.459 30.316 134.258 28.2122 135.855 26.5022C137.475 24.7697 139.41 23.9035 141.66 23.9035C144.023 23.9035 145.857 24.7247 147.162 26.3672V24.376ZM139.129 36.256C140.007 37.1335 141.12 37.5722 142.47 37.5722C143.82 37.5722 144.934 37.1335 145.812 36.256C146.712 35.356 147.162 34.2085 147.162 32.8135C147.162 31.4185 146.712 30.2822 145.812 29.4047C144.934 28.5047 143.82 28.0547 142.47 28.0547C141.12 28.0547 140.007 28.5047 139.129 29.4047C138.252 30.2822 137.813 31.4185 137.813 32.8135C137.813 34.2085 138.252 35.356 139.129 36.256ZM171.022 41.251H165.96L159.817 33.5897V41.251H155.463V17.626H159.817V31.801L165.622 24.376H170.82L164.036 32.7122L171.022 41.251ZM186.353 39.1585C184.621 40.8685 182.506 41.7235 180.008 41.7235C177.511 41.7235 175.396 40.8685 173.663 39.1585C171.953 37.426 171.098 35.311 171.098 32.8135C171.098 30.316 171.953 28.2122 173.663 26.5022C175.396 24.7697 177.511 23.9035 180.008 23.9035C182.506 23.9035 184.621 24.7697 186.353 26.5022C188.086 28.2122 188.952 30.316 188.952 32.8135C188.952 35.311 188.086 37.426 186.353 39.1585ZM176.735 36.1547C177.612 37.0322 178.703 37.471 180.008 37.471C181.313 37.471 182.405 37.0322 183.282 36.1547C184.16 35.2772 184.598 34.1635 184.598 32.8135C184.598 31.4635 184.16 30.3497 183.282 29.4722C182.405 28.5947 181.313 28.156 180.008 28.156C178.703 28.156 177.612 28.5947 176.735 29.4722C175.88 30.3497 175.452 31.4635 175.452 32.8135C175.452 34.1635 175.88 35.2772 176.735 36.1547Z" fill="#303045"/>
</svg>
