<svg width="184" height="60" viewBox="0 0 184 60" fill="none" xmlns="http://www.w3.org/2000/svg">
<path d="M16.1872 20.4398C18.5353 20.4398 20.4388 18.5362 20.4388 16.1881C20.4388 13.84 18.5353 11.9365 16.1872 11.9365C13.8391 11.9365 11.9355 13.84 11.9355 16.1881C11.9355 18.5362 13.8391 20.4398 16.1872 20.4398Z" fill="white"/>
<path d="M43.8126 20.4398C44.9402 20.4398 46.0216 19.9918 46.8189 19.1945C47.6162 18.3971 48.0642 17.3157 48.0642 16.1881C48.0642 15.0605 47.6162 13.9791 46.8189 13.1818C46.0216 12.3845 44.9402 11.9365 43.8126 11.9365H29.9997C28.8721 11.9365 27.7906 12.3845 26.9933 13.1818C26.196 13.9791 25.748 15.0605 25.748 16.1881C25.748 17.3157 26.196 18.3971 26.9933 19.1945C27.7906 19.9918 28.8721 20.4398 29.9997 20.4398H43.8126Z" fill="white"/>
<path d="M30.0001 34.2527C31.1277 34.2527 32.2091 33.8048 33.0064 33.0075C33.8037 32.2101 34.2517 31.1287 34.2517 30.0011C34.2517 28.8735 33.8037 27.7921 33.0064 26.9948C32.2091 26.1974 31.1277 25.7495 30.0001 25.7495H16.1872C15.0596 25.7495 13.9781 26.1974 13.1808 26.9948C12.3835 27.7921 11.9355 28.8735 11.9355 30.0011C11.9355 31.1287 12.3835 32.2101 13.1808 33.0075C13.9781 33.8048 15.0596 34.2527 16.1872 34.2527H30.0001Z" fill="white"/>
<path d="M16.1872 48.0652C18.5353 48.0652 20.4388 46.1617 20.4388 43.8136C20.4388 41.4655 18.5353 39.562 16.1872 39.562C13.8391 39.562 11.9355 41.4655 11.9355 43.8136C11.9355 46.1617 13.8391 48.0652 16.1872 48.0652Z" fill="white"/>
<path d="M29.9997 48.0652C32.3478 48.0652 34.2513 46.1617 34.2513 43.8136C34.2513 41.4655 32.3478 39.562 29.9997 39.562C27.6516 39.562 25.748 41.4655 25.748 43.8136C25.748 46.1617 27.6516 48.0652 29.9997 48.0652Z" fill="#607AFF"/>
<path d="M43.8141 48.0652C46.1622 48.0652 48.0657 46.1617 48.0657 43.8136C48.0657 41.4655 46.1622 39.562 43.8141 39.562C41.466 39.562 39.5625 41.4655 39.5625 43.8136C39.5625 46.1617 41.466 48.0652 43.8141 48.0652Z" fill="#607AFF"/>
<path d="M43.8141 34.2527C46.1622 34.2527 48.0657 32.3492 48.0657 30.0011C48.0657 27.653 46.1622 25.7495 43.8141 25.7495C41.466 25.7495 39.5625 27.653 39.5625 30.0011C39.5625 32.3492 41.466 34.2527 43.8141 34.2527Z" fill="#607AFF"/>
<path d="M70.496 21.12C68.2347 20.9493 67.104 21.856 67.104 23.84V24H70.496V27.968H67.104V40H62.976V27.968H60.672V24H62.976V23.84C62.976 21.5787 63.6053 19.8613 64.864 18.688C66.1227 17.5147 68 17.0027 70.496 17.152V21.12ZM83.9543 24H88.0823V40H83.9543V38.112C82.7169 39.6693 80.9783 40.448 78.7383 40.448C76.6049 40.448 74.7703 39.6373 73.2343 38.016C71.7196 36.3733 70.9622 34.368 70.9622 32C70.9622 29.632 71.7196 27.6373 73.2343 26.016C74.7703 24.3733 76.6049 23.552 78.7383 23.552C80.9783 23.552 82.7169 24.3307 83.9543 25.888V24ZM76.3383 35.264C77.1703 36.096 78.2263 36.512 79.5063 36.512C80.7863 36.512 81.8423 36.096 82.6743 35.264C83.5276 34.4107 83.9543 33.3227 83.9543 32C83.9543 30.6773 83.5276 29.6 82.6743 28.768C81.8423 27.9147 80.7863 27.488 79.5063 27.488C78.2263 27.488 77.1703 27.9147 76.3383 28.768C75.5063 29.6 75.0903 30.6773 75.0903 32C75.0903 33.3227 75.5063 34.4107 76.3383 35.264ZM95.9535 26.752C96.3375 25.728 96.9668 24.96 97.8415 24.448C98.7375 23.936 99.7295 23.68 100.818 23.68V28.288C99.5588 28.1387 98.4282 28.3947 97.4255 29.056C96.4442 29.7173 95.9535 30.816 95.9535 32.352V40H91.8255V24H95.9535V26.752ZM120.928 23.552C122.762 23.552 124.224 24.1493 125.312 25.344C126.421 26.5387 126.976 28.1387 126.976 30.144V40H122.848V30.432C122.848 29.472 122.613 28.7253 122.144 28.192C121.674 27.6587 121.013 27.392 120.16 27.392C119.221 27.392 118.485 27.7013 117.952 28.32C117.44 28.9387 117.184 29.8347 117.184 31.008V40H113.056V30.432C113.056 29.472 112.821 28.7253 112.352 28.192C111.882 27.6587 111.221 27.392 110.368 27.392C109.45 27.392 108.714 27.7013 108.16 28.32C107.626 28.9387 107.36 29.8347 107.36 31.008V40H103.232V24H107.36V25.696C108.32 24.2667 109.802 23.552 111.808 23.552C113.77 23.552 115.221 24.32 116.16 25.856C117.226 24.32 118.816 23.552 120.928 23.552ZM142.642 24H146.77V40H142.642V38.112C141.404 39.6693 139.666 40.448 137.426 40.448C135.292 40.448 133.458 39.6373 131.922 38.016C130.407 36.3733 129.65 34.368 129.65 32C129.65 29.632 130.407 27.6373 131.922 26.016C133.458 24.3733 135.292 23.552 137.426 23.552C139.666 23.552 141.404 24.3307 142.642 25.888V24ZM135.026 35.264C135.858 36.096 136.914 36.512 138.194 36.512C139.474 36.512 140.53 36.096 141.362 35.264C142.215 34.4107 142.642 33.3227 142.642 32C142.642 30.6773 142.215 29.6 141.362 28.768C140.53 27.9147 139.474 27.488 138.194 27.488C136.914 27.488 135.858 27.9147 135.026 28.768C134.194 29.6 133.778 30.6773 133.778 32C133.778 33.3227 134.194 34.4107 135.026 35.264ZM165.265 40H160.465L154.641 32.736V40H150.513V17.6H154.641V31.04L160.145 24H165.073L158.641 31.904L165.265 40ZM179.801 38.016C178.159 39.6373 176.153 40.448 173.785 40.448C171.417 40.448 169.412 39.6373 167.769 38.016C166.148 36.3733 165.337 34.368 165.337 32C165.337 29.632 166.148 27.6373 167.769 26.016C169.412 24.3733 171.417 23.552 173.785 23.552C176.153 23.552 178.159 24.3733 179.801 26.016C181.444 27.6373 182.265 29.632 182.265 32C182.265 34.368 181.444 36.3733 179.801 38.016ZM170.681 35.168C171.513 36 172.548 36.416 173.785 36.416C175.023 36.416 176.057 36 176.889 35.168C177.721 34.336 178.137 33.28 178.137 32C178.137 30.72 177.721 29.664 176.889 28.832C176.057 28 175.023 27.584 173.785 27.584C172.548 27.584 171.513 28 170.681 28.832C169.871 29.664 169.465 30.72 169.465 32C169.465 33.28 169.871 34.336 170.681 35.168Z" fill="white"/>
</svg>
