<svg width="24" height="22" viewBox="0 0 24 22" fill="none" xmlns="http://www.w3.org/2000/svg">
<path d="M12.0004 15.7342C14.0623 15.7342 15.7338 14.0628 15.7338 12.0009C15.7338 9.93905 14.0623 8.26758 12.0004 8.26758C9.93856 8.26758 8.26709 9.93905 8.26709 12.0009C8.26709 14.0628 9.93856 15.7342 12.0004 15.7342Z" fill="#53536A"/>
<path d="M8.50016 0.333984L6.36516 2.66732H2.66683C1.3835 2.66732 0.333496 3.71732 0.333496 5.00065V19.0006C0.333496 20.284 1.3835 21.334 2.66683 21.334H21.3335C22.6168 21.334 23.6668 20.284 23.6668 19.0006V5.00065C23.6668 3.71732 22.6168 2.66732 21.3335 2.66732H17.6352L15.5002 0.333984H8.50016ZM12.0002 17.834C8.78016 17.834 6.16683 15.2206 6.16683 12.0006C6.16683 8.78065 8.78016 6.16732 12.0002 6.16732C15.2202 6.16732 17.8335 8.78065 17.8335 12.0006C17.8335 15.2206 15.2202 17.834 12.0002 17.834Z" fill="#53536A"/>
</svg>
